# Tiled2Unity generated file. Do not modify by hand.
# Wavefront file for 'TestMap_mesh_0001.obj'

# Vertices (Count = 68)
v 0 -75 0
v -1 -75 0
v -1 -74 0
v 0 -74 0
v -1 -75 0
v -2 -75 0
v -2 -74 0
v -1 -74 0
v -2 -75 0
v -3 -75 0
v -3 -74 0
v -2 -74 0
v -3 -75 0
v -4 -75 0
v -4 -74 0
v -3 -74 0
v -4 -75 0
v -5 -75 0
v -5 -74 0
v -4 -74 0
v -5 -75 0
v -6 -75 0
v -6 -74 0
v -5 -74 0
v -6 -75 0
v -7 -75 0
v -7 -74 0
v -6 -74 0
v -7 -75 0
v -8 -75 0
v -8 -74 0
v -7 -74 0
v -8 -75 0
v -9 -75 0
v -9 -74 0
v -8 -74 0
v -9 -75 0
v -10 -75 0
v -10 -74 0
v -9 -74 0
v -10 -75 0
v -11 -75 0
v -11 -74 0
v -10 -74 0
v -11 -75 0
v -12 -75 0
v -12 -74 0
v -11 -74 0
v -12 -75 0
v -13 -75 0
v -13 -74 0
v -12 -74 0
v -13 -75 0
v -14 -75 0
v -14 -74 0
v -13 -74 0
v -14 -75 0
v -15 -75 0
v -15 -74 0
v -14 -74 0
v -15 -75 0
v -16 -75 0
v -16 -74 0
v -15 -74 0
v -16 -75 0
v -17 -75 0
v -17 -74 0
v -16 -74 0

# Texture cooridinates (Count = 8)
vt 0.4117647 0.875
vt 0.4705882 0.875
vt 0.4705882 1
vt 0.4117647 1
vt 0.5294118 0.875
vt 0.5294118 1
vt 0.5882353 0.875
vt 0.5882353 1

# Normal
vn 0 0 -1

# Mesh description
g TestMap_mesh_0001

# Faces
f 1/1/1 2/2/1 3/3/1 4/4/1
f 5/2/1 6/5/1 7/6/1 8/3/1
f 9/2/1 10/5/1 11/6/1 12/3/1
f 13/2/1 14/5/1 15/6/1 16/3/1
f 17/2/1 18/5/1 19/6/1 20/3/1
f 21/2/1 22/5/1 23/6/1 24/3/1
f 25/2/1 26/5/1 27/6/1 28/3/1
f 29/2/1 30/5/1 31/6/1 32/3/1
f 33/2/1 34/5/1 35/6/1 36/3/1
f 37/2/1 38/5/1 39/6/1 40/3/1
f 41/2/1 42/5/1 43/6/1 44/3/1
f 45/2/1 46/5/1 47/6/1 48/3/1
f 49/2/1 50/5/1 51/6/1 52/3/1
f 53/2/1 54/5/1 55/6/1 56/3/1
f 57/2/1 58/5/1 59/6/1 60/3/1
f 61/2/1 62/5/1 63/6/1 64/3/1
f 65/5/1 66/7/1 67/8/1 68/6/1

